<svg width="21" height="20" viewBox="0 0 21 20" fill="none" xmlns="http://www.w3.org/2000/svg">
<g id="ic-search">
<path id="shape" fill-rule="evenodd" clip-rule="evenodd" d="M14.9967 14.9973C13.6762 16.1215 11.9645 16.8 10.0944 16.8C5.91542 16.8 2.52771 13.4122 2.52771 9.23329C2.52771 5.05434 5.91542 1.66663 10.0944 1.66663C14.2733 1.66663 17.661 5.05434 17.661 9.23329C17.661 11.0921 16.9908 12.7944 15.8787 14.1116L19.5108 17.7436L18.6269 18.6275L14.9967 14.9973ZM16.411 9.23329C16.411 12.7219 13.583 15.55 10.0944 15.55C6.60578 15.55 3.77771 12.7219 3.77771 9.23329C3.77771 5.74469 6.60578 2.91663 10.0944 2.91663C13.583 2.91663 16.411 5.74469 16.411 9.23329Z" fill="black" fill-opacity="0.7"/>
</g>
</svg>
