<svg width="25" height="24" viewBox="0 0 25 24" fill="none" xmlns="http://www.w3.org/2000/svg">
<g id="UserCircle">
<path id="Vector" d="M12.8611 2.25C10.9327 2.25 9.04766 2.82183 7.44428 3.89317C5.8409 4.96451 4.59122 6.48726 3.85326 8.26884C3.11531 10.0504 2.92223 12.0108 3.29843 13.9021C3.67464 15.7934 4.60324 17.5307 5.9668 18.8943C7.33036 20.2579 9.06764 21.1865 10.959 21.5627C12.8503 21.9389 14.8107 21.7458 16.5923 21.0078C18.3738 20.2699 19.8966 19.0202 20.9679 17.4168C22.0393 15.8134 22.6111 13.9284 22.6111 12C22.6084 9.41498 21.5803 6.93661 19.7524 5.10872C17.9245 3.28084 15.4461 2.25273 12.8611 2.25ZM7.80609 18.5156C8.34865 17.6671 9.09609 16.9688 9.97951 16.4851C10.8629 16.0013 11.8539 15.7478 12.8611 15.7478C13.8683 15.7478 14.8592 16.0013 15.7427 16.4851C16.6261 16.9688 17.3735 17.6671 17.9161 18.5156C16.4708 19.6397 14.692 20.2499 12.8611 20.2499C11.0301 20.2499 9.2514 19.6397 7.80609 18.5156ZM9.86109 11.25C9.86109 10.6567 10.037 10.0766 10.3667 9.58329C10.6963 9.08994 11.1649 8.70542 11.713 8.47836C12.2612 8.2513 12.8644 8.19189 13.4464 8.30764C14.0283 8.4234 14.5629 8.70912 14.9824 9.12868C15.402 9.54824 15.6877 10.0828 15.8034 10.6647C15.9192 11.2467 15.8598 11.8499 15.6327 12.3981C15.4057 12.9462 15.0211 13.4148 14.5278 13.7444C14.0345 14.0741 13.4544 14.25 12.8611 14.25C12.0654 14.25 11.3024 13.9339 10.7398 13.3713C10.1772 12.8087 9.86109 12.0456 9.86109 11.25ZM19.0261 17.4759C18.1896 16.2638 17.0134 15.3261 15.6455 14.7806C16.3803 14.2019 16.9165 13.4085 17.1795 12.5108C17.4425 11.6132 17.4193 10.6559 17.113 9.77207C16.8068 8.88825 16.2327 8.12183 15.4707 7.5794C14.7086 7.03696 13.7965 6.74548 12.8611 6.74548C11.9257 6.74548 11.0136 7.03696 10.2515 7.5794C9.48948 8.12183 8.91541 8.88825 8.60914 9.77207C8.30287 10.6559 8.27963 11.6132 8.54265 12.5108C8.80568 13.4085 9.34189 14.2019 10.0767 14.7806C8.70873 15.3261 7.53256 16.2638 6.69609 17.4759C5.63912 16.2873 4.94828 14.8185 4.70676 13.2464C4.46523 11.6743 4.68332 10.0658 5.33476 8.61478C5.9862 7.16372 7.04322 5.93192 8.37853 5.06769C9.71384 4.20346 11.2705 3.74367 12.8611 3.74367C14.4517 3.74367 16.0083 4.20346 17.3436 5.06769C18.679 5.93192 19.736 7.16372 20.3874 8.61478C21.0389 10.0658 21.2569 11.6743 21.0154 13.2464C20.7739 14.8185 20.0831 16.2873 19.0261 17.4759Z" fill="black"/>
</g>
</svg>
